<svg width="14" height="14" viewBox="0 0 14 14" fill="none" xmlns="http://www.w3.org/2000/svg">
<path fill-rule="evenodd" clip-rule="evenodd" d="M14 7C14 7.26517 13.9078 7.51948 13.7437 7.70698C13.5797 7.89448 13.3571 7.99982 13.1251 7.99982L2.98848 7.99982L6.74531 12.291C6.82666 12.384 6.89118 12.4944 6.93521 12.6158C6.97923 12.7373 7.00189 12.8675 7.00189 12.9989C7.00189 13.1304 6.97923 13.2606 6.93521 13.382C6.89118 13.5035 6.82666 13.6138 6.74531 13.7068C6.66397 13.7997 6.5674 13.8735 6.46111 13.9238C6.35483 13.9741 6.24092 14 6.12588 14C6.01084 14 5.89693 13.9741 5.79065 13.9238C5.68436 13.8735 5.58779 13.7997 5.50645 13.7068L0.257036 7.70787C0.175559 7.615 0.110918 7.50467 0.0668112 7.3832C0.0227049 7.26173 6.41946e-07 7.13151 6.47695e-07 7C6.53443e-07 6.86849 0.0227049 6.73827 0.0668113 6.6168C0.110918 6.49533 0.175559 6.385 0.257036 6.29213L5.50645 0.29321C5.58779 0.200251 5.68436 0.126512 5.79065 0.0762026C5.89693 0.0258935 6.01084 -3.49217e-07 6.12588 -3.44189e-07C6.24092 -3.3916e-07 6.35483 0.0258935 6.46111 0.0762026C6.5674 0.126512 6.66397 0.200251 6.74531 0.29321C6.90959 0.48095 7.00189 0.735579 7.00189 1.00108C7.00189 1.13255 6.97923 1.26272 6.93521 1.38418C6.89118 1.50564 6.82666 1.616 6.74531 1.70896L2.98848 6.00018L13.1251 6.00018C13.3571 6.00018 13.5797 6.10552 13.7437 6.29302C13.9078 6.48052 14 6.73483 14 7Z" fill="#6627EC"/>
</svg>
