<svg width="20" height="21" viewBox="0 0 20 21" fill="none" xmlns="http://www.w3.org/2000/svg">
<path d="M6.75537 11.6903C7.42223 12.3966 8.12388 13.1273 8.77915 13.8153C10.339 12.1774 11.9221 10.5091 13.4936 8.86518C12.8267 8.15888 12.1308 7.43433 11.4756 6.74021C9.88091 8.40852 8.29205 10.0768 6.75537 11.6903Z" fill="#3E3E3E"/>
<path d="M4.8999 15.6845C6.06546 15.2279 7.15563 14.7956 8.21681 14.3755C7.52095 13.6448 6.8309 12.9203 6.14084 12.1957C5.74652 13.3221 5.33481 14.4729 4.8999 15.6845Z" fill="#3E3E3E"/>
<path d="M11.9282 6.23485C12.6067 6.94114 13.3025 7.67179 13.9636 8.3659C14.3115 8.00667 14.6537 7.64135 14.9668 7.31864C14.2883 6.60626 13.5925 5.87562 12.943 5.19368C12.6183 5.52247 12.2704 5.88171 11.9282 6.23485Z" fill="#3E3E3E"/>
<path d="M9.9971 0C4.48826 0 0 4.71267 0 10.497C0 16.2812 4.48826 20.9939 9.9971 20.9939C15.5117 20.9939 19.9942 16.2812 19.9942 10.497C19.9942 4.71267 15.5117 0 9.9971 0ZM9.9971 20.3911C4.80719 20.3911 0.579878 15.9525 0.579878 10.497C0.579878 5.04755 4.80719 0.608872 9.9971 0.608872C15.1928 0.608872 19.4143 5.04755 19.4143 10.497C19.4201 15.9525 15.1928 20.3911 9.9971 20.3911Z" fill="#3E3E3E"/>
</svg>
