<svg width="18" height="18" viewBox="0 0 18 18" fill="none" xmlns="http://www.w3.org/2000/svg">
<g clip-path="url(#clip0_67_567)">
<path d="M6.28809 9.94742C6.84539 10.5096 7.43177 11.0911 7.97938 11.6387C9.28299 10.3351 10.606 9.00727 11.9193 7.69882C11.362 7.13667 10.7804 6.55998 10.2328 6.00752C8.90015 7.33536 7.57231 8.6632 6.28809 9.94742Z" fill="white"/>
<path d="M4.73779 13.1265C5.71186 12.763 6.62294 12.419 7.50978 12.0846C6.92824 11.503 6.35155 10.9263 5.77486 10.3497C5.44533 11.2462 5.10125 12.1621 4.73779 13.1265Z" fill="white"/>
<path d="M10.6108 5.6053C11.1778 6.16745 11.7594 6.74898 12.3118 7.30144C12.6026 7.01552 12.8885 6.72475 13.1502 6.46791C12.5832 5.90091 12.0017 5.31938 11.4589 4.77661C11.1875 5.0383 10.8968 5.32422 10.6108 5.6053Z" fill="white"/>
<path d="M8.9973 0.642868C4.39348 0.642868 0.642578 4.39377 0.642578 8.99759C0.642578 13.6014 4.39348 17.3523 8.9973 17.3523C13.606 17.3523 17.352 13.6014 17.352 8.99759C17.352 4.39377 13.606 0.642868 8.9973 0.642868ZM8.9973 16.8725C4.66002 16.8725 1.12719 13.3397 1.12719 8.99759C1.12719 4.66031 4.66002 1.12748 8.9973 1.12748C13.3394 1.12748 16.8674 4.66031 16.8674 8.99759C16.8722 13.3397 13.3394 16.8725 8.9973 16.8725Z" fill="white"/>
</g>
<defs>
<clipPath id="clip0_67_567">
<rect width="16.7143" height="16.7143" fill="white" transform="translate(0.642578 0.642868)"/>
</clipPath>
</defs>
</svg>
