<svg width="34" height="34" viewBox="0 0 34 34" fill="none" xmlns="http://www.w3.org/2000/svg">
<g filter="url(#filter0_d_112_58)">
<path d="M11.561 1.05794C10.3212 1.05633 9.10632 1.42051 8.05757 2.10816C7.00883 2.79582 6.16923 3.77873 5.63628 4.94275C5.10333 6.10676 4.89891 7.4041 5.04676 8.6841C5.19461 9.96409 5.68866 11.1742 6.47153 12.1739L16.9807 25L27.3863 12.3018L27.4381 12.2412L27.4899 12.1739C28.0582 11.4612 28.4811 10.6358 28.7327 9.74771C28.9843 8.85966 29.0593 7.92765 28.9534 7.00846C28.8474 6.08926 28.5625 5.20213 28.1162 4.40109C27.6698 3.60006 27.0713 2.9019 26.357 2.34915C25.6428 1.79639 24.8278 1.40062 23.9618 1.18593C23.0957 0.971239 22.1967 0.942133 21.3194 1.10038C20.4422 1.25863 19.6051 1.60093 18.8592 2.10641C18.1133 2.61189 17.4741 3.26999 16.9807 4.04059C16.3812 3.12166 15.5744 2.36936 14.6308 1.84942C13.6871 1.32949 12.6354 1.05775 11.5675 1.05794H11.561Z" stroke="white" stroke-linecap="round" stroke-linejoin="round" shape-rendering="crispEdges"/>
</g>
<defs>
<filter id="filter0_d_112_58" x="0.5" y="0.5" width="33" height="33" filterUnits="userSpaceOnUse" color-interpolation-filters="sRGB">
<feFlood flood-opacity="0" result="BackgroundImageFix"/>
<feColorMatrix in="SourceAlpha" type="matrix" values="0 0 0 0 0 0 0 0 0 0 0 0 0 0 0 0 0 0 127 0" result="hardAlpha"/>
<feOffset dy="4"/>
<feGaussianBlur stdDeviation="2"/>
<feComposite in2="hardAlpha" operator="out"/>
<feColorMatrix type="matrix" values="0 0 0 0 0 0 0 0 0 0 0 0 0 0 0 0 0 0 0.25 0"/>
<feBlend mode="normal" in2="BackgroundImageFix" result="effect1_dropShadow_112_58"/>
<feBlend mode="normal" in="SourceGraphic" in2="effect1_dropShadow_112_58" result="shape"/>
</filter>
</defs>
</svg>
