<svg width="26" height="26" viewBox="0 0 26 26" fill="none" xmlns="http://www.w3.org/2000/svg">
<path d="M7.56101 1.05794C6.32116 1.05633 5.10632 1.42051 4.05757 2.10816C3.00883 2.79582 2.16923 3.77873 1.63628 4.94275C1.10333 6.10676 0.898913 7.4041 1.04676 8.6841C1.19461 9.96409 1.68866 11.1742 2.47153 12.1739L12.9807 25L23.3863 12.3018L23.4381 12.2412L23.4899 12.1739C24.0582 11.4612 24.4811 10.6358 24.7327 9.74771C24.9843 8.85966 25.0593 7.92765 24.9534 7.00846C24.8474 6.08926 24.5625 5.20213 24.1162 4.40109C23.6698 3.60006 23.0713 2.9019 22.357 2.34915C21.6428 1.79639 20.8278 1.40062 19.9618 1.18593C19.0957 0.971239 18.1967 0.942133 17.3194 1.10038C16.4422 1.25863 15.6051 1.60093 14.8592 2.10641C14.1133 2.61189 13.4741 3.26999 12.9807 4.04059C12.3812 3.12166 11.5744 2.36936 10.6308 1.84942C9.68713 1.32949 8.63541 1.05775 7.56749 1.05794H7.56101Z" stroke="white" stroke-linecap="round" stroke-linejoin="round"/>
</svg>
