<svg width="27" height="27" viewBox="0 0 27 27" fill="none" xmlns="http://www.w3.org/2000/svg">
<g clip-path="url(#clip0_58_166)">
<path d="M25.2825 12.9675L14.0325 1.71748C13.892 1.5778 13.7019 1.49939 13.5038 1.49939C13.3056 1.49939 13.1155 1.5778 12.975 1.71748L1.72502 12.9675C1.60215 13.111 1.53795 13.2955 1.54524 13.4843C1.55253 13.673 1.63078 13.8521 1.76435 13.9857C1.89792 14.1192 2.07697 14.1975 2.26573 14.2048C2.45449 14.2121 2.63904 14.1479 2.78252 14.025L13.5 3.30748L24.2175 14.0325C24.361 14.1554 24.5456 14.2196 24.7343 14.2123C24.9231 14.205 25.1021 14.1267 25.2357 13.9932C25.3693 13.8596 25.4475 13.6805 25.4548 13.4918C25.4621 13.303 25.3979 13.1185 25.275 12.975L25.2825 12.9675Z" fill="white"/>
<path d="M21 24H17.25V16.5H9.75V24H6V13.5L4.5 15V24C4.5 24.3978 4.65804 24.7794 4.93934 25.0607C5.22064 25.342 5.60218 25.5 6 25.5H11.25V18H15.75V25.5H21C21.3978 25.5 21.7794 25.342 22.0607 25.0607C22.342 24.7794 22.5 24.3978 22.5 24V14.82L21 13.32V24Z" fill="white"/>
</g>
<defs>
<clipPath id="clip0_58_166">
<rect width="27" height="27" fill="white"/>
</clipPath>
</defs>
</svg>
