<svg width="14" height="17" viewBox="0 0 14 17" fill="none" xmlns="http://www.w3.org/2000/svg">
<path d="M11.5454 5.77273H13.0606C13.2615 5.77273 13.4542 5.85483 13.5962 6.00096C13.7383 6.14709 13.8181 6.34529 13.8181 6.55195V15.9026C13.8181 16.1093 13.7383 16.3075 13.5962 16.4536C13.4542 16.5997 13.2615 16.6818 13.0606 16.6818H0.939338C0.738417 16.6818 0.545724 16.5997 0.403651 16.4536C0.261578 16.3075 0.181763 16.1093 0.181763 15.9026V6.55195C0.181763 6.34529 0.261578 6.14709 0.403651 6.00096C0.545724 5.85483 0.738417 5.77273 0.939338 5.77273H2.45449V4.99351C2.45449 3.75354 2.93338 2.56435 3.78582 1.68755C4.63826 0.810761 5.79442 0.318184 6.99994 0.318184C8.20547 0.318184 9.36163 0.810761 10.2141 1.68755C11.0665 2.56435 11.5454 3.75354 11.5454 4.99351V5.77273ZM10.0302 5.77273V4.99351C10.0302 4.16686 9.71098 3.37407 9.14269 2.78954C8.5744 2.20501 7.80363 1.87663 6.99994 1.87663C6.19626 1.87663 5.42549 2.20501 4.8572 2.78954C4.2889 3.37407 3.96964 4.16686 3.96964 4.99351V5.77273H10.0302ZM6.24237 10.4481V12.0065H7.75752V10.4481H6.24237ZM3.21207 10.4481V12.0065H4.72722V10.4481H3.21207ZM9.27267 10.4481V12.0065H10.7878V10.4481H9.27267Z" fill="white"/>
</svg>
