<svg width="30" height="30" viewBox="0 0 30 30" fill="none" xmlns="http://www.w3.org/2000/svg">
<g clip-path="url(#clip0_67_528)">
<path d="M14.8038 4.86014e-05C6.66917 0.0404332 -0.0404474 6.83659 -6.27848e-05 15.0001C0.0460911 23.4001 6.74994 30.0347 15.1499 30.0001C23.3365 29.9654 30.0288 23.1981 29.9999 14.9885C29.9769 6.60582 23.2326 -0.040336 14.8038 4.86014e-05ZM14.9826 28.8462C7.3384 28.8404 1.14801 22.6327 1.15378 14.9712C1.15955 7.34428 7.36725 1.15389 15.0057 1.15389C22.6499 1.15389 28.8634 7.37313 28.8461 15.0116C28.8288 22.6674 22.6326 28.852 14.9826 28.8462Z" fill="#C8C4C4"/>
<path d="M22.9268 19.1538C22.9153 18.9577 22.8288 18.8769 22.6557 18.8135C21.4961 18.3808 20.3364 17.9481 19.1826 17.4981C18.9634 17.4115 18.8018 17.4231 18.5999 17.5615C18.0345 17.9654 17.4576 18.3404 16.8864 18.7269C16.6903 18.8596 16.4768 18.8942 16.2634 18.7731C15.6345 18.4269 14.9711 18.1269 14.3941 17.7058C13.0672 16.7308 12.0114 15.5077 11.3134 13.9962C11.123 13.5865 11.1345 13.2404 11.4057 12.8769C11.7749 12.375 12.1268 11.8558 12.4672 11.3308C12.5364 11.2269 12.5768 11.0538 12.5364 10.9442C12.0864 9.71538 11.6249 8.49808 11.1518 7.28077C11.1172 7.19423 10.9903 7.10192 10.8922 7.08462C10.448 7.01538 9.99798 6.95769 9.54798 6.92885C9.38644 6.91731 9.19029 6.94038 9.05183 7.02115C7.09606 8.22692 6.57106 10.1769 7.11914 12.3981C8.96529 17.2154 12.2595 20.6365 17.0134 22.6558C17.6884 22.9442 18.3864 23.0769 19.1134 23.0712C20.7634 23.1058 22.0268 22.4019 22.9153 21.0346C23.0191 20.8731 23.0711 20.6423 23.0595 20.4462C23.0422 20.0135 22.9557 19.5865 22.9268 19.1538Z" fill="#C8C4C4"/>
</g>
<defs>
<clipPath id="clip0_67_528">
<rect width="30" height="30" fill="white"/>
</clipPath>
</defs>
</svg>
