<svg width="25" height="25" viewBox="0 0 25 25" fill="none" xmlns="http://www.w3.org/2000/svg">
<path d="M25 12.0283C25 15.2109 23.683 18.2631 21.3388 20.5135C18.9946 22.764 15.8152 24.0283 12.5 24.0283C9.18479 24.0283 6.00537 22.764 3.66117 20.5135C1.31696 18.2631 0 15.2109 0 12.0283C0 8.84566 1.31696 5.79341 3.66117 3.54298C6.00537 1.29254 9.18479 0.0282593 12.5 0.0282593C15.8152 0.0282593 18.9946 1.29254 21.3388 3.54298C23.683 5.79341 25 8.84566 25 12.0283ZM10.6094 7.66776C10.4926 7.58791 10.3551 7.54047 10.2121 7.53064C10.069 7.5208 9.92593 7.54895 9.79845 7.612C9.67097 7.67505 9.56403 7.77057 9.48934 7.88809C9.41464 8.00561 9.37509 8.14059 9.375 8.27826V15.7783C9.37509 15.9159 9.41464 16.0509 9.48934 16.1684C9.56403 16.286 9.67097 16.3815 9.79845 16.4445C9.92593 16.5076 10.069 16.5357 10.2121 16.5259C10.3551 16.516 10.4926 16.4686 10.6094 16.3888L16.0781 12.6388C16.1794 12.5694 16.2619 12.4778 16.3189 12.3716C16.3759 12.2654 16.4056 12.1477 16.4056 12.0283C16.4056 11.9088 16.3759 11.7911 16.3189 11.6849C16.2619 11.5787 16.1794 11.4871 16.0781 11.4178L10.6094 7.66776Z" fill="white"/>
</svg>
