<svg width="22" height="23" viewBox="0 0 22 23" fill="none" xmlns="http://www.w3.org/2000/svg">
<g clip-path="url(#clip0_58_149)">
<path d="M20.7603 12.5811C20.2299 12.6431 19.8511 13.0633 19.8098 13.6281C19.7202 14.9781 18.8317 15.8598 17.5299 15.8598C13.0252 15.8667 8.52047 15.8598 4.02266 15.8598C3.95378 15.8598 3.8849 15.846 3.81602 15.8391C3.80224 15.8185 3.79536 15.7909 3.78158 15.7702C3.86424 15.7082 3.95378 15.6531 4.02266 15.5774C4.80788 14.7922 5.59999 14.0207 6.36455 13.2217C6.77782 12.7947 6.74338 12.1541 6.337 11.7339C5.92372 11.3069 5.28315 11.2931 4.82854 11.6926C4.64257 11.8579 4.47037 12.037 4.29129 12.2092C3.00325 13.5041 1.70143 14.799 0.41339 16.094C-0.110092 16.6175 -0.144531 17.258 0.358287 17.7608C1.79097 19.2073 3.23055 20.6469 4.67701 22.0796C4.97319 22.3757 5.34514 22.4653 5.74464 22.3482C6.57119 22.1071 6.80538 21.1221 6.18546 20.4953C5.39335 19.6963 4.59435 18.9042 3.74025 18.0501C3.91245 18.0501 4.01577 18.0501 4.1122 18.0501C8.59623 18.0501 13.0872 18.0501 17.5712 18.0501C18.2875 18.0501 18.9763 17.9124 19.6031 17.568C21.1391 16.7277 21.9588 15.4327 21.9932 13.6694C22.007 12.9875 21.4422 12.5054 20.7603 12.5811Z" fill="white"/>
<path d="M0.737072 10.2944C1.1779 10.4459 1.69449 10.3219 1.95623 9.9293C2.09399 9.72266 2.16976 9.44025 2.19731 9.19229C2.34196 7.88358 3.21672 7.07081 4.52543 7.06392C9.00257 7.06392 13.4797 7.06392 17.9569 7.06392C18.0326 7.06392 18.1153 7.07081 18.2255 7.0777C17.4196 7.89047 16.6413 8.66881 15.8629 9.44714C15.367 9.94307 15.3326 10.6181 15.7803 11.0727C16.2349 11.5342 16.903 11.5066 17.4058 11.0038C18.7972 9.61245 20.1885 8.22109 21.5799 6.82973C22.1378 6.27181 22.1378 5.6519 21.5799 5.09398C20.3263 3.84038 19.0796 2.58678 17.826 1.34007C17.5987 1.11276 17.3783 0.885463 17.1441 0.671937C16.7859 0.348205 16.2349 0.313766 15.856 0.575506C15.2568 0.988781 15.1604 1.71201 15.6563 2.24238C16.0833 2.70387 16.5379 3.13781 16.9788 3.57864C17.3852 3.98502 17.7915 4.39141 18.2461 4.84601C18.074 4.84601 17.9775 4.84601 17.888 4.84601C13.4728 4.84601 9.05079 4.84601 4.63563 4.84601C3.55423 4.84601 2.55548 5.10087 1.70138 5.78277C0.599314 6.67131 0.0207294 7.82848 0.00695358 9.24739C6.56643e-05 9.74332 0.296246 10.1428 0.737072 10.2944Z" fill="white"/>
</g>
<defs>
<clipPath id="clip0_58_149">
<rect width="22" height="22" fill="white" transform="translate(0 0.40332)"/>
</clipPath>
</defs>
</svg>
