<svg width="22" height="24" viewBox="0 0 22 24" fill="none" xmlns="http://www.w3.org/2000/svg">
<path d="M13.2349 0C13.4056 5.71854e-06 13.5718 0.0576066 13.7098 0.164507C13.8477 0.271408 13.9502 0.422092 14.0024 0.594857L14.8892 3.52457C15.2617 3.71829 15.6181 3.936 15.9583 4.18114L18.7898 3.53314C18.9567 3.49525 19.1307 3.51467 19.2866 3.58861C19.4425 3.66254 19.5723 3.78718 19.6573 3.94457L21.8922 8.05714C21.9775 8.21444 22.0136 8.39649 21.9954 8.57703C21.9771 8.75758 21.9054 8.9273 21.7906 9.06171L19.8476 11.3417C19.8758 11.7789 19.8758 12.2177 19.8476 12.6549L21.7906 14.9383C21.9054 15.0727 21.9771 15.2424 21.9954 15.423C22.0136 15.6035 21.9775 15.7856 21.8922 15.9429L19.6573 20.0571C19.572 20.2142 19.4421 20.3385 19.2863 20.4121C19.1304 20.4857 18.9566 20.5049 18.7898 20.4669L15.9583 19.8189C15.6197 20.0623 15.2617 20.2817 14.8909 20.4754L14.0024 23.4051C13.9502 23.5779 13.8477 23.7286 13.7098 23.8355C13.5718 23.9424 13.4056 24 13.2349 24H8.76513C8.59444 24 8.42816 23.9424 8.29023 23.8355C8.1523 23.7286 8.04984 23.5779 7.9976 23.4051L7.11237 20.4771C6.74089 20.284 6.38258 20.0635 6.04008 19.8171L3.21022 20.4669C3.04327 20.5048 2.86932 20.4853 2.71342 20.4114C2.55752 20.3375 2.42772 20.2128 2.34272 20.0554L0.10785 15.9429C0.0225101 15.7856 -0.0136373 15.6035 0.00462008 15.423C0.0228775 15.2424 0.0945962 15.0727 0.209435 14.9383L2.15245 12.6549C2.1243 12.2188 2.1243 11.7812 2.15245 11.3451L0.209435 9.06171C0.0945962 8.9273 0.0228775 8.75758 0.00462008 8.57703C-0.0136373 8.39649 0.0225101 8.21444 0.10785 8.05714L2.34272 3.94286C2.42796 3.78578 2.55786 3.6615 2.71374 3.58788C2.86962 3.51426 3.04345 3.49509 3.21022 3.53314L6.04008 4.18286C6.38192 3.93771 6.73989 3.71657 7.11237 3.52286L7.99922 0.594857C8.05128 0.422648 8.15325 0.272363 8.29053 0.165514C8.42782 0.0586653 8.59338 0.000729716 8.76352 0H13.2333H13.2349ZM12.6447 1.71429H9.35529L8.43942 4.74343L7.82185 5.064C7.51825 5.22195 7.22517 5.4018 6.94467 5.60229L6.37386 6.01371L3.44564 5.34171L1.80093 8.37257L3.80844 10.7349L3.76007 11.4617C3.7369 11.8201 3.7369 12.1799 3.76007 12.5383L3.80844 13.2651L1.79771 15.6274L3.44402 18.6583L6.37225 17.988L6.94306 18.3977C7.22356 18.5982 7.51664 18.778 7.82023 18.936L8.4378 19.2566L9.35529 22.2857H12.6479L13.567 19.2549L14.183 18.936C14.4863 18.7784 14.7788 18.5986 15.0586 18.3977L15.6278 17.988L18.5576 18.6583L20.2023 15.6274L18.1932 13.2651L18.2415 12.5383C18.2648 12.1793 18.2648 11.819 18.2415 11.46L18.1932 10.7331L20.2039 8.37257L18.5576 5.34171L15.6278 6.01029L15.0586 5.60229C14.7789 5.4014 14.4863 5.22153 14.183 5.064L13.567 4.74514L12.6463 1.71429H12.6447ZM11 6.85714C12.283 6.85714 13.5134 7.39898 14.4205 8.36345C15.3277 9.32792 15.8374 10.636 15.8374 12C15.8374 13.364 15.3277 14.6721 14.4205 15.6365C13.5134 16.601 12.283 17.1429 11 17.1429C9.71705 17.1429 8.48664 16.601 7.57946 15.6365C6.67228 14.6721 6.16263 13.364 6.16263 12C6.16263 10.636 6.67228 9.32792 7.57946 8.36345C8.48664 7.39898 9.71705 6.85714 11 6.85714ZM11 8.57143C10.1447 8.57143 9.32443 8.93265 8.71964 9.57563C8.11485 10.2186 7.77508 11.0907 7.77508 12C7.77508 12.9093 8.11485 13.7814 8.71964 14.4244C9.32443 15.0673 10.1447 15.4286 11 15.4286C11.8553 15.4286 12.6756 15.0673 13.2804 14.4244C13.8851 13.7814 14.2249 12.9093 14.2249 12C14.2249 11.0907 13.8851 10.2186 13.2804 9.57563C12.6756 8.93265 11.8553 8.57143 11 8.57143Z" fill="white"/>
</svg>
