<svg width="30" height="30" viewBox="0 0 30 30" fill="none" xmlns="http://www.w3.org/2000/svg">
<path d="M14.9706 0.000149829C6.67078 0.0368423 -0.0292579 6.74422 9.60859e-05 14.9927C0.0294501 23.3512 6.73683 30.0293 15.066 29.9999C23.3585 29.9706 30.0219 23.2412 29.9998 14.934C29.9778 6.67084 23.2264 -0.0365426 14.9706 0.000149829ZM23.2044 26.0371C23.2044 24.5107 23.2117 23.0577 23.2044 21.6047C23.1897 18.6179 21.3551 15.9981 18.5518 14.9854C18.4344 14.9413 18.2583 14.956 18.1482 15.022C16.042 16.2182 13.9432 16.2182 11.8444 15.0147C11.7417 14.956 11.5582 14.9413 11.4408 14.9854C8.63016 16.0274 6.82489 18.6032 6.79554 21.612C6.78086 22.9476 6.78086 24.2759 6.77352 25.6115C6.77352 25.7289 6.77352 25.8463 6.77352 26.0665C5.27647 24.9584 4.10965 23.6668 3.19968 22.1477C1.56319 19.4251 0.924746 16.4677 1.30635 13.3122C2.0989 6.77358 7.44133 1.62929 14.1854 1.21834C20.7387 0.814722 26.7049 5.15177 28.356 11.4996C29.9632 17.7079 27.0204 23.4026 23.2044 26.0371Z" fill="#C8C4C4"/>
<path d="M14.9861 4.6461C12.0727 4.65344 9.71704 7.00909 9.71704 9.91513C9.71704 12.8212 12.0947 15.2135 14.9714 15.2062C17.9215 15.1988 20.2845 12.8359 20.2771 9.89312C20.2771 6.98708 17.9068 4.63876 14.9861 4.6461Z" fill="#C8C4C4"/>
</svg>
